<svg viewBox="0 0 512 512" fill="none" xmlns="http://www.w3.org/2000/svg">
  <path
    d="M497.682 246.274L386.402 56.975C382.443 50.022 374.921 45 366.604 45H144.047C136.13 45 128.604 50.022 124.25 56.975L12.9694 245.892C11.0218 249.32 10 253.175 10 257.094C10 261.013 11.0218 264.868 12.9694 268.296L124.25 456.053C128.209 463.006 135.731 466.483 144.047 466.483H367C374.921 466.483 382.443 463.006 386.801 456.439L498.081 268.682C502.04 260.958 502.04 252.841 497.682 246.274ZM405.409 337.059C405.409 339.765 403.825 342.466 401.051 343.627L259.283 423.597C258.107 424.354 256.73 424.757 255.322 424.757C253.914 424.757 252.537 424.354 251.361 423.597L109.202 344.016C106.823 342.47 104.844 340.154 104.844 337.448V177.122C104.844 174.42 106.428 171.714 109.202 170.558L251.365 90.5873C252.541 89.8309 253.918 89.4277 255.326 89.4277C256.734 89.4277 258.111 89.8309 259.286 90.5873L401.454 170.558C403.828 172.1 405.808 174.42 405.808 177.122V337.063L405.409 337.059Z"
    fill="#4B32C3"
  />
  <path
    d="M405.409 337.059C405.409 339.765 403.825 342.466 401.051 343.627L259.283 423.597C258.107 424.354 256.73 424.757 255.322 424.757C253.914 424.757 252.537 424.354 251.361 423.597L109.202 344.016C106.823 342.47 104.844 340.154 104.844 337.448V177.122C104.844 174.42 106.428 171.714 109.202 170.558L251.365 90.5873C252.541 89.8309 253.918 89.4277 255.326 89.4277C256.734 89.4277 258.111 89.8309 259.286 90.5873L401.454 170.558C403.828 172.1 405.808 174.42 405.808 177.122V337.063L405.409 337.059Z"
    fill="white"
  />
  <path
    fill-rule="evenodd"
    clip-rule="evenodd"
    d="M236.085 206.171C234.254 202.92 229.54 202.92 227.708 206.171L196.508 261.562C195.66 263.068 194.058 264 192.32 264H171.805C168.143 264 165.831 260.093 167.615 256.919L218.483 166.442C219.33 164.934 220.933 164 222.673 164H241.126C242.863 164 244.464 164.931 245.312 166.435L296.381 256.912C298.173 260.086 295.861 264 292.195 264H271.474C269.736 264 268.133 263.068 267.285 261.562L236.085 206.171Z"
    fill="#4B32C2"
  />
  <path
    fill-rule="evenodd"
    clip-rule="evenodd"
    d="M275.915 305.829C277.746 309.08 282.46 309.08 284.292 305.829L315.492 250.438C316.34 248.933 317.942 248 319.68 248H340.195C343.857 248 346.169 251.907 344.385 255.081L293.517 345.559C292.67 347.066 291.067 348 289.327 348H270.874C269.137 348 267.536 347.069 266.688 345.565L215.619 255.088C213.827 251.914 216.139 248 219.805 248H240.526C242.264 248 243.867 248.933 244.715 250.438L275.915 305.829Z"
    fill="#4B32C2"
  />
</svg>
